<svg xmlns="http://www.w3.org/2000/svg" viewBox="0 0 512 512" style="height: 512px; width: 512px;"><defs><radialGradient id="lorc-anvil-gradient-0"><stop offset="0%" stop-color="#1c6c81" stop-opacity="1"></stop><stop offset="100%" stop-color="#55b3e2" stop-opacity="1"></stop></radialGradient></defs><path d="M5 5h502v502H5z" fill="url(#lorc-anvil-gradient-0)" stroke="#1c6c81" stroke-opacity="1" stroke-width="5"></path><g class="" transform="translate(0,0)" style=""><path d="M128.688 115.594v147.75h285v-147.75h-285zm-111.844 20.47c17.374 47.14 54.372 80.413 94.906 93.81v-93.81H16.844zm414.375 12.31v88.657c21.457-9.083 42.92-25.257 64.374-47.374-21.52-22.562-42.633-35.173-64.375-41.28zm-226.25 132.47c-12.15 38.536-33.897 71.5-60.595 100.47l257.844-.002c-28.705-29.016-49.952-62.054-61.5-100.468H204.97zM101.843 400v43.78h337.562V400H101.844z" fill="#ffffff" fill-opacity="1"></path></g></svg>