<?xml version="1.0" encoding="UTF-8" standalone="no"?>
<!DOCTYPE svg PUBLIC "-//W3C//DTD SVG 1.1//EN" "http://www.w3.org/Graphics/SVG/1.1/DTD/svg11.dtd">
<svg width="1228.80" height="1228.80" viewBox="0.00 0.00 5120.00 5120.00" xmlns="http://www.w3.org/2000/svg" xmlns:xlink="http://www.w3.org/1999/xlink">
<g stroke-linecap="round" transform="translate(643.00, 1073.00)" id="armor-shield-game-svgrepo-com_(1)">
<path d="M3012.66,2139.11 C3012.66,2101.30 2994.07,2065.74 2962.63,2043.46 C2931.08,2021.18 2890.59,2014.66 2853.40,2026.16 C2853.40,2026.16 1911.77,2315.35 1911.77,2315.35 C1911.77,2315.35 970.13,2026.16 970.13,2026.16 C932.94,2014.66 892.45,2021.18 860.90,2043.46 C829.46,2065.74 810.87,2101.30 810.87,2139.11 C810.87,2139.11 810.87,2850.23 810.87,2850.23 C810.87,2915.65 865.67,2968.75 933.19,2968.75 C933.19,2968.75 2890.34,2968.75 2890.34,2968.75 C2957.86,2968.75 3012.66,2915.65 3012.66,2850.23 C3012.66,2850.23 3012.66,2139.11 3012.66,2139.11 Z" fill="none" stroke="rgb(0, 0, 0)" stroke-width="73.70" stroke-opacity="1.00" stroke-linejoin="round"/>
<path d="M2768.02,2301.01 C2768.02,2301.01 2768.02,2731.71 2768.02,2731.71 C2768.02,2731.71 1055.51,2731.71 1055.51,2731.71 C1055.51,2731.71 1055.51,2301.01 1055.51,2301.01 C1055.51,2301.01 1874.82,2552.62 1874.82,2552.62 C1898.80,2560.09 1924.73,2560.09 1948.71,2552.62 C1948.71,2552.62 2768.02,2301.01 2768.02,2301.01 Z" fill="none" stroke="rgb(0, 0, 0)" stroke-width="73.70" stroke-opacity="1.00" stroke-linejoin="round"/>
<path d="M2523.13,604.98 C2525.58,564.56 2506.37,525.80 2472.49,502.10 C2438.48,478.52 2394.45,473.30 2355.67,488.35 C2355.67,488.35 2049.87,606.87 2049.87,606.87 C2003.38,624.77 1972.93,668.39 1972.93,716.86 C1972.93,716.86 1972.93,2020.59 1972.93,2020.59 C1972.93,2058.16 1991.40,2093.59 2022.59,2115.88 C2053.78,2138.28 2094.15,2144.91 2131.21,2133.89 C2131.21,2133.89 2926.30,1896.85 2926.30,1896.85 C2977.68,1881.56 3012.66,1835.58 3012.66,1783.54 C3012.66,1783.54 3012.66,1072.42 3012.66,1072.42 C3012.66,1007.00 2957.86,953.90 2890.34,953.90 C2781.23,953.90 2686.92,924.75 2620.87,866.31 C2557.75,810.37 2523.38,728.12 2523.38,626.90 C2523.38,619.55 2522.76,612.21 2523.13,604.98 Z" fill="none" stroke="rgb(0, 0, 0)" stroke-width="73.70" stroke-opacity="1.00" stroke-linejoin="round"/>
<path d="M1467.86,488.35 C1429.08,473.30 1385.05,478.52 1351.04,502.10 C1317.16,525.80 1297.95,564.56 1300.40,604.98 C1300.77,612.21 1300.15,619.55 1300.15,626.90 C1300.15,728.12 1265.78,810.37 1202.66,866.31 C1136.61,924.75 1042.30,953.90 933.19,953.90 C865.67,953.90 810.87,1007.00 810.87,1072.42 C810.87,1072.42 810.87,1783.54 810.87,1783.54 C810.87,1835.58 845.85,1881.56 897.23,1896.85 C897.23,1896.85 1692.32,2133.89 1692.32,2133.89 C1729.38,2144.91 1769.75,2138.28 1800.94,2115.88 C1832.13,2093.59 1850.60,2058.16 1850.60,2020.59 C1850.60,2020.59 1850.60,716.86 1850.60,716.86 C1850.60,668.39 1820.15,624.77 1773.66,606.87 C1773.66,606.87 1467.86,488.35 1467.86,488.35 Z" fill="none" stroke="rgb(0, 0, 0)" stroke-width="73.70" stroke-opacity="1.00" stroke-linejoin="round"/>
<path d="M2294.27,767.35 C2319.95,879.00 2376.83,971.21 2455.73,1041.13 C2537.20,1113.31 2643.74,1162.38 2768.02,1181.70 C2768.02,1181.70 2768.02,1695.96 2768.02,1695.96 C2768.02,1695.96 2217.57,1860.11 2217.57,1860.11 C2217.57,1860.11 2217.57,797.10 2217.57,797.10 C2217.57,797.10 2294.27,767.35 2294.27,767.35 Z" fill="none" stroke="rgb(0, 0, 0)" stroke-width="73.70" stroke-opacity="1.00" stroke-linejoin="round"/>
<path d="M1529.26,767.35 C1529.26,767.35 1605.96,797.10 1605.96,797.10 C1605.96,797.10 1605.96,1860.11 1605.96,1860.11 C1605.96,1860.11 1055.51,1695.96 1055.51,1695.96 C1055.51,1695.96 1055.51,1181.70 1055.51,1181.70 C1179.79,1162.38 1286.33,1113.31 1367.80,1041.13 C1446.70,971.21 1503.58,879.00 1529.26,767.35 Z" fill="none" stroke="rgb(0, 0, 0)" stroke-width="73.70" stroke-opacity="1.00" stroke-linejoin="round"/>
<path d="M1297.83,147.49 C1304.93,112.64 1295.63,76.61 1272.39,49.12 C1249.15,21.62 1214.53,5.74 1177.83,5.74 C980.77,5.74 692.83,144.41 496.62,318.39 C350.94,447.46 260.42,597.39 260.42,716.86 C260.42,782.28 315.22,835.38 382.74,835.38 C382.74,835.38 1055.51,835.38 1055.51,835.38 C1055.51,835.38 1175.51,740.09 1175.51,740.09 C1175.51,740.09 1297.83,147.49 1297.83,147.49 Z" fill="none" stroke="rgb(0, 0, 0)" stroke-width="73.70" stroke-opacity="1.00" stroke-linejoin="round"/>
<path d="M2645.70,5.74 C2609.00,5.74 2574.38,21.62 2551.14,49.12 C2527.90,76.61 2518.61,112.64 2525.70,147.49 C2525.70,147.49 2648.02,740.09 2648.02,740.09 C2648.02,740.09 2768.02,835.38 2768.02,835.38 C2768.02,835.38 3440.79,835.38 3440.79,835.38 C3508.31,835.38 3563.11,782.28 3563.11,716.86 C3563.11,597.39 3472.60,447.46 3326.91,318.39 C3130.70,144.41 2842.76,5.74 2645.70,5.74 Z" fill="none" stroke="rgb(0, 0, 0)" stroke-width="73.70" stroke-opacity="1.00" stroke-linejoin="round"/>
<path d="M955.21,598.34 C955.21,598.34 561.82,598.34 561.82,598.34 C588.97,562.90 623.10,527.46 661.63,493.33 C765.24,401.48 899.43,317.33 1022.24,273.83 C1022.24,273.83 955.21,598.34 955.21,598.34 Z" fill="none" stroke="rgb(0, 0, 0)" stroke-width="73.70" stroke-opacity="1.00" stroke-linejoin="round"/>
<path d="M2868.32,598.34 C2868.32,598.34 2801.29,273.83 2801.29,273.83 C2924.10,317.33 3058.29,401.60 3161.90,493.33 C3200.43,527.46 3234.56,562.90 3261.71,598.34 C3261.71,598.34 2868.32,598.34 2868.32,598.34 Z" fill="none" stroke="rgb(0, 0, 0)" stroke-width="73.70" stroke-opacity="1.00" stroke-linejoin="round"/>
</g>
</svg>
