<?xml version="1.0" encoding="UTF-8"?>
<!-- Uploaded to: SVG Find, www.svgrepo.com, Generator: SVG Find Mixer Tools -->
<svg width="800px" height="800px" version="1.1" viewBox="144 144 512 512" xmlns="http://www.w3.org/2000/svg">
 <defs>
  <clipPath id="b">
   <path d="m148.09 290h302.91v361.9h-302.91z"/>
  </clipPath>
  <clipPath id="a">
   <path d="m399 148.09h252.9v503.81h-252.9z"/>
  </clipPath>
 </defs>
 <g clip-path="url(#b)">
  <path d="m299.24 651.9c83.34 0 151.14-58.012 151.14-129.31l-0.003906 0.003906c-0.28516-17.461-3.0938-34.785-8.3359-51.441-1.0664-3.2969-3.1172-6.1875-5.8789-8.2773-2.7617-2.0938-6.1016-3.2812-9.5625-3.4102-3.418-0.12891-6.793 0.80859-9.6523 2.6875-2.8594 1.875-5.0625 4.5977-6.3047 7.7852-1.5859 4.1914-4.3477 7.8359-7.9492 10.504 0.31641-22.363-2.1484-44.676-7.332-66.43-24.871-97.98-93.516-118.64-121.87-122.98-5.6875-0.85547-11.414 1.3086-15.113 5.7109-3.9453 4.6133-5.1914 10.957-3.2852 16.719 9.3281 27.402 12.43 56.535 9.0859 85.285-1.7031 10.605-5.5195 20.754-11.227 29.852-0.21484-7.5469-1.3008-15.043-3.2344-22.344-2.8477-10.508-7.6914-20.371-14.273-29.043-1.9336-2.6406-4.6172-4.6406-7.6992-5.7422-3.0859-1.1016-6.4297-1.25-9.5977-0.42969-3.2461 0.85547-6.1719 2.6484-8.4023 5.1602-2.2344 2.5078-3.6758 5.6211-4.1523 8.9453-2.1055 17.977-9.5352 34.91-21.336 48.633-24.047 23.109-37.184 55.312-36.164 88.648v0.16797c0 71.297 67.805 129.31 151.14 129.31zm-134.35-129.4v-0.074219c-0.94531-28.742 10.316-56.543 31-76.523 14.672-16.266 23.84-36.746 26.199-58.523 5.2773 6.9766 9.1562 14.91 11.422 23.359 2.7891 13.523 3.7812 27.359 2.9453 41.145v1.2773c-0.015625 3.4922 2.1328 6.625 5.3945 7.875 3.2617 1.25 6.9531 0.34766 9.2734-2.2578 15.402-15.762 25.727-35.773 29.641-57.461 3.707-31.57 0.35156-63.57-9.8242-93.684 25.055 3.8359 85.758 22.277 108.19 110.52h0.003906c5.4805 24.199 7.793 49.012 6.8672 73.809 0 2.2266 0.88672 4.3633 2.4609 5.9375 1.5742 1.5742 3.7109 2.457 5.9375 2.457 7.043-0.42188 13.805-2.9062 19.445-7.1406s9.9141-10.035 12.285-16.68c4.6406 14.926 7.1484 30.43 7.457 46.059 0 62.035-60.273 112.52-134.35 112.52-74.078 0-134.35-50.48-134.35-112.52z"/>
 </g>
 <g clip-path="url(#a)">
  <path d="m433.59 324.43c-7.9023-0.019531-15.559 2.7461-21.621 7.8125-6.0625 5.0664-10.145 12.109-11.531 19.887-1.3867 7.7812 0.015625 15.797 3.957 22.645 3.9453 6.8477 10.172 12.09 17.598 14.797 7.4219 2.707 15.562 2.7148 22.988 0.015625 7.4258-2.6992 13.66-7.9297 17.613-14.773h12.98v208.24c-0.015624 8.75 2.7227 17.289 7.8242 24.398l25.527 35.746c3.9297 5.5 10.27 8.7656 17.027 8.7656 6.7617 0 13.102-3.2656 17.031-8.7656l25.527-35.738c5.1094-7.1289 7.8477-15.684 7.8242-24.457v-208.3h12.848c2.9414 5.1562 7.1992 9.4375 12.336 12.406 5.1406 2.9688 10.973 4.5234 16.91 4.4961 2.1953 0 4.3906-0.20703 6.5508-0.62109 6.5508-1.293 12.562-4.5234 17.262-9.2734 4.6953-4.7461 7.8633-10.797 9.0859-17.363 1.8867-9.8398-0.71484-20.012-7.1016-27.734-6.3867-7.7227-15.887-12.188-25.906-12.184h-59.316l-4.5-67.172-2.3164-34.645v-0.003906c9.1133-7.2891 14.777-18.047 15.637-29.688 0.85938-11.641-3.1641-23.113-11.109-31.664-7.9414-8.5508-19.09-13.41-30.762-13.41s-22.816 4.8594-30.758 13.41c-7.9453 8.5508-11.969 20.023-11.109 31.664s6.5234 22.398 15.637 29.688l-2.3164 34.648-4.5 67.176zm125.95 258.57c0.007813 5.2539-1.6367 10.375-4.7031 14.645l-25.527 35.727c-0.77734 1.082-2.0273 1.7188-3.3594 1.7188-1.3281 0-2.5781-0.63672-3.3555-1.7188l-25.527-35.727c-3.0664-4.2695-4.7109-9.3906-4.7031-14.645v-208.19h25.191v201.52c0 4.6367 3.7578 8.3984 8.3945 8.3984 4.6406 0 8.3984-3.7617 8.3984-8.3984v-201.52h25.191zm71.691-235.74c3.2539 3.8984 4.5664 9.0586 3.5781 14.039-0.89844 4.4883-3.5898 8.4141-7.4531 10.871-3.8594 2.457-8.5547 3.2305-13 2.1445-4.4492-1.0859-8.2578-3.9414-10.551-7.9023-1.457-2.5547-3.5664-4.6758-6.1133-6.1523-2.543-1.4766-5.4375-2.25-8.3789-2.2422h-126.72c-2.9453-0.007813-5.8359 0.76562-8.3789 2.2422-2.5469 1.4766-4.6562 3.5977-6.1172 6.1523-2.293 3.9609-6.1016 6.8164-10.547 7.9023-4.4453 1.082-9.1445 0.30859-13.004-2.1484-3.8594-2.4609-6.5508-6.3867-7.4492-10.875-0.98047-4.9336 0.30469-10.051 3.4961-13.938 3.1953-3.8867 7.9648-6.1367 12.996-6.1289h184.73c4.9883-0.007812 9.7188 2.2031 12.914 6.0352zm-117.55-81.609h24.551l1.6797 25.191h-27.918zm12.273-100.76c6.6836 0 13.09 2.6562 17.812 7.3789 4.7266 4.7227 7.3789 11.133 7.3789 17.812s-2.6523 13.09-7.3789 17.812c-4.7227 4.7227-11.129 7.3789-17.812 7.3789-6.6797 0-13.086-2.6562-17.812-7.3789-4.7227-4.7227-7.375-11.133-7.375-17.812s2.6523-13.09 7.375-17.812c4.7266-4.7227 11.133-7.3789 17.812-7.3789zm0 67.176c3.3555-0.035156 6.6953-0.47656 9.9453-1.3203l1.207 18.113h-22.301l1.2109-18.113h-0.003907c3.25 0.84375 6.5898 1.2852 9.9414 1.3203zm-15.113 75.57h30.23l1.125 16.793h-32.453z"/>
 </g>
 <path d="m299.24 618.32c20.59 0 40.289-8.4023 54.539-23.262 14.254-14.859 21.824-34.895 20.965-55.465-0.85938-20.574-10.078-39.906-25.52-53.523-3.4766-3.0703-8.7852-2.7383-11.855 0.73828-3.0703 3.4766-2.7383 8.7852 0.73828 11.855 12.016 10.594 19.188 25.629 19.855 41.629 0.67187 16.004-5.2148 31.586-16.301 43.145-11.086 11.562-26.406 18.098-42.422 18.098-16.02 0-31.34-6.5352-42.426-18.098-11.086-11.559-16.973-27.141-16.301-43.145 0.66797-16 7.8398-31.035 19.855-41.629 3.4805-3.0703 3.8086-8.3789 0.73828-11.855-3.0703-3.4766-8.3789-3.8086-11.855-0.73828-15.441 13.617-24.66 32.949-25.52 53.523-0.85938 20.57 6.7109 40.605 20.965 55.465 14.25 14.859 33.949 23.262 54.543 23.262z"/>
 <path d="m299.24 559.54c2.2266 0 4.3594-0.88672 5.9375-2.4609 1.5742-1.5742 2.457-3.7109 2.457-5.9375v-83.969c0-4.6367-3.7578-8.3945-8.3945-8.3945-4.6406 0-8.3984 3.7578-8.3984 8.3945v83.969c0 2.2266 0.88281 4.3633 2.4609 5.9375 1.5742 1.5742 3.707 2.4609 5.9375 2.4609z"/>
</svg>