<?xml version="1.0" encoding="UTF-8" standalone="no"?>
<!DOCTYPE svg PUBLIC "-//W3C//DTD SVG 1.1//EN" "http://www.w3.org/Graphics/SVG/1.1/DTD/svg11.dtd">
<svg width="1228.80" height="1228.80" viewBox="0.00 0.00 5120.00 5120.00" xmlns="http://www.w3.org/2000/svg" xmlns:xlink="http://www.w3.org/1999/xlink">
<g stroke-linecap="round" transform="translate(888.00, 890.00)" id="brain-illustration-12-svgrepo-com">
<path d="M2671.48,996.37 C2663.16,987.96 2653.83,980.25 2643.57,973.41 C2643.57,973.41 2633.05,971.22 2633.05,971.22 C2627.55,968.82 2623.16,964.89 2620.29,960.14 C2603.86,952.38 2586.66,947.38 2569.16,944.88 C2554.05,942.79 2543.44,928.76 2545.63,913.54 C2547.67,898.33 2561.80,887.72 2576.91,889.81 C2594.22,892.36 2611.56,896.76 2628.20,903.29 C2630.90,891.14 2632.43,878.74 2632.43,866.24 C2632.38,838.88 2625.96,811.27 2612.28,785.29 C2596.66,755.59 2573.75,732.42 2546.95,716.61 C2523.48,702.73 2496.94,694.46 2469.69,692.52 C2467.70,717.37 2461.78,742.12 2451.47,766.11 C2445.35,780.19 2429.07,786.67 2414.93,780.60 C2400.85,774.58 2394.32,758.25 2400.39,744.16 C2410.29,721.05 2414.93,697.27 2415.04,673.68 C2415.04,673.68 2414.68,663.63 2414.68,663.63 C2412.79,630.97 2401.97,599.43 2383.55,572.54 C2365.12,545.69 2339.30,523.70 2307.15,509.77 C2284.09,499.92 2260.20,495.27 2236.67,495.27 C2191.61,495.27 2147.98,512.63 2115.01,543.24 C2121.18,564.22 2124.71,586.32 2124.71,609.28 C2124.71,624.60 2112.15,637.04 2096.84,637.04 C2081.53,637.04 2069.03,624.60 2069.03,609.28 C2069.03,586.78 2064.90,565.44 2057.34,545.59 C2057.34,545.59 2057.40,545.59 2057.40,545.59 C2044.58,512.17 2021.93,483.39 1992.89,463.07 C1963.95,442.77 1928.89,430.87 1890.72,430.87 C1857.60,430.87 1826.73,439.91 1800.19,455.52 C1778.96,468.07 1760.64,485.02 1746.25,504.92 C1774.37,543.45 1791.00,591.07 1791.00,642.41 C1791.00,657.71 1778.50,670.12 1763.14,670.12 C1747.83,670.12 1735.33,657.71 1735.33,642.41 C1735.33,597.30 1718.74,556.26 1691.13,524.88 C1658.37,487.47 1610.55,464.05 1556.97,464.05 C1519.77,464.05 1485.52,475.33 1456.89,494.72 C1428.36,514.11 1405.65,541.57 1392.23,573.82 C1383.55,594.90 1378.60,618.12 1378.60,642.41 C1378.60,657.71 1366.20,670.12 1350.84,670.12 C1335.48,670.12 1323.08,657.71 1323.08,642.41 C1323.08,619.85 1326.35,598.11 1332.27,577.39 C1311.34,568.92 1288.68,564.23 1265.42,564.23 C1252.20,564.23 1238.93,565.76 1225.46,568.77 C1185.85,577.90 1152.73,599.24 1128.49,628.12 C1111.04,648.95 1098.58,673.69 1092.10,700.28 C1149.52,701.30 1206.87,723.50 1251.18,766.88 C1262.10,777.64 1262.30,795.20 1251.59,806.12 C1240.82,817.14 1223.26,817.25 1212.29,806.58 C1177.49,772.64 1132.63,755.64 1087.51,755.59 C1079.45,755.59 1071.39,756.15 1063.32,757.17 C1063.32,757.17 1063.22,757.17 1063.22,757.17 C1063.22,757.17 1063.17,757.17 1063.17,757.17 C1025.36,762.43 988.92,779.67 959.98,809.18 C925.99,843.88 909.15,888.69 909.10,933.91 C909.10,959.68 914.71,985.65 925.94,1009.54 C934.66,1028.37 946.91,1045.92 962.73,1061.33 C962.73,1061.33 962.73,1061.38 962.73,1061.38 C980.60,1078.94 1001.22,1091.90 1023.22,1100.37 C1037.45,1105.94 1044.65,1122.01 1039.04,1136.30 C1033.48,1150.69 1017.45,1157.84 1003.11,1152.22 C974.38,1141.09 947.23,1124.06 923.75,1101.04 C913.50,1090.93 904.36,1080.16 896.25,1068.74 C875.27,1098.80 863.89,1134.77 863.89,1171.41 C863.89,1199.79 870.68,1228.42 885.02,1255.31 C901.15,1285.42 924.47,1308.90 951.93,1324.92 C973.61,1337.63 997.86,1345.64 1022.86,1348.45 C1022.86,1348.45 1022.81,1346.76 1022.81,1346.76 C1022.81,1332.06 1024.19,1317.68 1026.69,1303.69 C1029.55,1288.59 1044.10,1278.73 1059.10,1281.44 C1074.21,1284.24 1084.16,1298.74 1081.45,1313.84 C1079.46,1324.51 1078.39,1335.58 1078.39,1346.76 C1078.39,1346.76 1078.85,1359.67 1078.85,1359.67 C1078.85,1359.67 1080.33,1372.69 1080.33,1372.69 C1080.33,1372.69 1080.33,1372.84 1080.33,1372.84 C1080.33,1372.84 1080.38,1373.09 1080.38,1373.09 C1093.14,1460.26 1168.46,1525.42 1256.65,1525.42 C1256.65,1525.42 1269.46,1524.92 1269.46,1524.92 C1269.46,1524.92 1269.51,1524.92 1269.51,1524.92 C1308.60,1522.11 1343.71,1507.00 1371.58,1483.48 C1391.12,1466.99 1407.14,1446.33 1418.12,1423.05 C1424.60,1409.11 1441.28,1403.20 1455.12,1409.78 C1469.00,1416.32 1474.92,1432.85 1468.39,1446.73 C1456.50,1471.79 1440.27,1494.39 1420.77,1513.63 C1431.69,1547.21 1452.21,1576.05 1479.00,1597.48 C1509.63,1622.03 1548.26,1636.52 1590.00,1636.52 C1590.00,1636.52 1602.86,1636.02 1602.86,1636.02 C1602.86,1636.02 1602.92,1636.02 1602.92,1636.02 C1629.35,1634.13 1653.80,1626.52 1675.49,1614.68 C1672.12,1598.71 1670.18,1582.38 1670.18,1565.85 C1670.18,1531.75 1677.79,1497.00 1693.50,1464.34 C1700.19,1450.51 1716.77,1444.74 1730.55,1451.43 C1744.38,1458.01 1750.25,1474.65 1743.57,1488.48 C1731.47,1513.54 1725.81,1539.87 1725.81,1565.85 C1725.81,1584.01 1728.61,1602.13 1734.02,1619.32 C1734.02,1619.32 1734.08,1619.32 1734.08,1619.32 C1748.31,1664.69 1780.47,1704.35 1826.75,1726.60 C1851.76,1738.69 1878.09,1744.36 1904.02,1744.36 C1945.20,1744.36 1985.47,1729.96 2017.42,1703.89 C2017.42,1703.89 2017.52,1703.83 2017.52,1703.83 C2036.91,1687.86 2053.14,1667.65 2064.82,1643.51 C2064.82,1643.51 2064.88,1643.40 2064.88,1643.40 C2075.75,1620.85 2081.46,1597.23 2082.43,1573.65 C2083.14,1558.33 2096.05,1546.39 2111.46,1547.11 C2126.78,1547.77 2138.61,1560.73 2137.95,1576.04 C2136.62,1606.97 2129.12,1638.20 2114.88,1667.64 C2114.88,1667.64 2114.88,1667.59 2114.88,1667.59 C2103.45,1691.43 2088.40,1712.40 2070.74,1730.31 C2103.50,1777.36 2158.01,1807.02 2216.95,1806.97 C2227.87,1806.97 2239.00,1805.95 2250.18,1803.80 C2293.09,1795.74 2329.28,1773.03 2355.00,1741.80 C2380.67,1710.51 2395.62,1670.76 2395.62,1628.80 C2395.62,1628.80 2395.57,1625.03 2395.57,1625.03 C2395.57,1625.03 2395.57,1624.82 2395.57,1624.82 C2395.37,1615.38 2394.40,1605.49 2392.57,1595.53 C2388.13,1571.90 2379.09,1550.46 2366.69,1531.53 C2348.73,1515.71 2328.78,1495.05 2309.95,1472.08 C2289.89,1447.58 2271.42,1420.79 2259.02,1393.80 C2250.85,1375.73 2245.03,1357.46 2244.93,1338.22 C2244.93,1329.70 2246.10,1320.87 2249.32,1312.40 C2252.43,1303.78 2257.53,1295.61 2264.37,1288.87 C2275.19,1278.11 2292.74,1278.11 2303.61,1288.87 C2314.43,1299.79 2314.43,1317.45 2303.61,1328.22 C2303.61,1328.22 2301.52,1331.54 2301.52,1331.54 C2301.52,1331.54 2300.45,1338.23 2300.45,1338.23 C2300.35,1345.22 2303.26,1357.06 2309.53,1370.68 C2315.76,1384.26 2324.99,1399.52 2335.87,1414.57 C2357.40,1444.73 2385.32,1474.34 2406.34,1492.40 C2406.34,1492.40 2409.20,1494.85 2409.20,1494.85 C2409.20,1494.85 2411.30,1497.96 2411.30,1497.96 C2428.50,1523.58 2441.10,1553.08 2447.17,1585.28 C2447.17,1585.28 2447.17,1585.33 2447.17,1585.33 C2447.17,1585.33 2449.16,1599.11 2449.16,1599.11 C2449.16,1599.11 2457.48,1599.47 2457.48,1599.47 C2492.70,1599.41 2528.16,1589.00 2559.34,1567.11 C2584.15,1549.65 2603.03,1527.25 2615.79,1502.09 C2628.59,1476.88 2635.28,1449.02 2635.28,1420.95 C2635.28,1394.67 2629.36,1368.28 2617.52,1343.74 C2606.54,1347.26 2595.42,1350.07 2584.14,1352.01 C2569.04,1354.71 2554.69,1344.45 2551.99,1329.35 C2549.43,1314.19 2559.65,1299.90 2574.75,1297.25 C2623.95,1288.78 2669.01,1260.10 2696.88,1214.06 C2714.53,1185.13 2722.85,1153.28 2722.85,1121.80 C2722.85,1075.40 2704.93,1030.04 2671.56,996.41 C2671.56,996.41 2671.48,996.37 2671.48,996.37 Z" fill="none" stroke="rgb(0, 0, 0)" stroke-width="44.00" stroke-opacity="1.00" stroke-linejoin="miter"/>
<path d="M1398.36,784.38 C1424.90,752.99 1460.11,730.69 1497.98,716.09 C1536.00,701.50 1576.72,694.51 1615.81,694.51 C1653.83,694.56 1690.37,700.99 1721.40,715.38 C1735.28,721.71 1741.35,738.29 1734.92,752.23 C1728.54,766.11 1712.06,772.23 1698.03,765.81 C1676.60,755.76 1647.25,749.99 1615.81,749.99 C1583.46,749.99 1548.96,755.95 1517.98,768.00 C1487.01,779.89 1459.80,797.65 1440.66,820.21 C1430.87,831.95 1413.26,833.48 1401.52,823.48 C1389.84,813.57 1388.36,796.07 1398.36,784.38 Z" fill="none" stroke="rgb(0, 0, 0)" stroke-width="44.00" stroke-opacity="1.00" stroke-linejoin="miter"/>
<path d="M2030.76,1441.38 C1998.46,1441.38 1969.16,1437.71 1942.42,1431.54 C1943.14,1439.19 1943.65,1447.71 1943.65,1456.74 C1943.65,1474.86 1941.65,1495.57 1935.99,1517.32 C1930.27,1539.00 1920.63,1561.82 1905.42,1583.71 C1896.70,1596.37 1879.39,1599.48 1866.79,1590.75 C1854.13,1582.02 1851.07,1564.77 1859.69,1552.06 C1870.92,1535.89 1877.91,1519.35 1882.20,1503.07 C1886.49,1486.80 1888.07,1470.97 1888.07,1456.74 C1888.12,1437.09 1885.11,1420.91 1882.97,1411.67 C1869.39,1405.55 1856.89,1398.66 1845.21,1390.95 C1798.67,1360.84 1767.54,1321.09 1747.99,1283.27 C1734.88,1257.90 1726.91,1233.41 1722.62,1212.13 C1720.18,1199.98 1718.95,1188.96 1718.95,1178.95 C1718.95,1163.54 1731.41,1151.09 1746.76,1151.09 C1762.12,1151.09 1774.58,1163.54 1774.58,1178.95 C1774.52,1187.01 1776.26,1200.54 1780.65,1215.90 C1785.04,1231.32 1792.03,1248.82 1802.14,1266.43 C1822.40,1301.84 1854.60,1337.31 1904.30,1360.33 C1937.53,1375.74 1978.86,1385.74 2030.76,1385.74 C2046.12,1385.74 2058.57,1398.20 2058.57,1413.55 C2058.57,1428.93 2046.13,1441.38 2030.76,1441.38 Z" fill="none" stroke="rgb(0, 0, 0)" stroke-width="44.00" stroke-opacity="1.00" stroke-linejoin="miter"/>
<path d="M2226.43,1238.47 C2220.71,1252.66 2204.53,1259.60 2190.24,1253.93 C2176.00,1248.22 2169.17,1232.14 2174.78,1217.90 C2174.78,1217.90 2174.78,1217.85 2174.78,1217.85 C2174.78,1217.85 2174.93,1217.44 2174.93,1217.44 C2174.93,1217.44 2175.76,1214.99 2175.76,1214.99 C2175.76,1214.99 2178.61,1204.99 2178.61,1204.99 C2180.71,1196.22 2182.85,1183.82 2182.85,1170.19 C2182.85,1170.19 2182.80,1168.25 2182.80,1168.25 C2144.63,1181.21 2109.21,1187.02 2076.60,1187.02 C2027.30,1187.13 1984.64,1173.61 1949.93,1153.09 C1915.18,1132.58 1888.14,1105.43 1867.92,1077.82 C1844.96,1046.54 1814.85,1018.47 1780.35,998.62 C1745.76,978.71 1707.07,966.88 1665.99,966.77 C1630.01,966.88 1591.74,975.85 1551.78,997.80 C1513.86,1018.62 1489.47,1046.33 1473.70,1076.74 C1458.03,1107.21 1451.40,1140.48 1451.45,1170.80 C1451.34,1198.87 1457.27,1224.28 1464.97,1240.31 C1471.55,1254.19 1465.58,1270.72 1451.75,1277.30 C1437.92,1283.89 1421.33,1277.92 1414.75,1264.09 C1402.66,1238.46 1395.92,1206.21 1395.82,1170.80 C1395.87,1135.59 1402.86,1097.10 1420.07,1060.31 C1385.57,1068.12 1353.52,1071.60 1324.33,1071.60 C1308.56,1071.60 1293.70,1070.57 1279.57,1068.74 C1279.57,1068.74 1274.41,1079.15 1274.41,1079.15 C1274.41,1079.15 1274.36,1079.24 1274.36,1079.24 C1274.36,1079.24 1273.95,1079.66 1273.95,1079.66 C1273.95,1079.66 1272.47,1081.55 1272.47,1081.55 C1272.47,1081.55 1266.55,1089.61 1266.55,1089.61 C1261.50,1096.86 1254.51,1107.42 1246.90,1120.89 C1231.74,1147.58 1214.39,1185.25 1205.97,1227.55 C1202.96,1242.60 1188.37,1252.45 1173.31,1249.39 C1158.26,1246.38 1148.45,1231.78 1151.57,1216.63 C1161.57,1166.46 1181.33,1123.80 1198.52,1093.43 C1207.50,1077.71 1215.72,1065.27 1221.74,1056.79 C1199.08,1050.01 1179.49,1041.69 1163.46,1033.21 C1126.87,1013.76 1107.83,994.27 1106.20,992.69 C1095.59,981.61 1095.89,964.06 1106.91,953.39 C1117.99,942.78 1135.49,943.09 1146.16,954.00 C1146.16,954.00 1146.47,954.31 1146.47,954.31 C1146.47,954.31 1148.10,955.89 1148.10,955.89 C1148.10,955.89 1156.06,962.57 1156.06,962.57 C1163.30,968.29 1174.49,976.15 1189.43,984.11 C1219.44,999.93 1264.25,1015.96 1324.32,1016.06 C1366.52,1016.06 1416.28,1008.00 1474.10,985.75 C1488.74,972.12 1505.63,959.67 1525.03,949.06 C1572.59,922.98 1620.51,911.24 1665.98,911.24 C1717.93,911.24 1766.26,926.35 1808.11,950.44 C1849.95,974.63 1885.42,1007.75 1912.72,1045.00 C1929.31,1067.50 1951.10,1089.30 1978.10,1105.16 C2005.25,1121.09 2037.34,1131.45 2076.59,1131.50 C2103.48,1131.50 2133.80,1126.50 2168.09,1114.45 C2159.73,1101.03 2147.27,1088.07 2126.76,1076.33 C2113.39,1068.72 2108.64,1051.78 2116.19,1038.46 C2123.80,1025.04 2140.69,1020.44 2154.06,1027.90 C2186.92,1046.43 2208.92,1070.97 2221.67,1096.64 C2234.58,1122.21 2238.41,1148.13 2238.41,1170.18 C2238.26,1208.67 2227.19,1236.48 2226.43,1238.47 Z" fill="none" stroke="rgb(0, 0, 0)" stroke-width="44.00" stroke-opacity="1.00" stroke-linejoin="miter"/>
<path d="M2216.02,898.03 C2151.10,898.03 2094.30,880.53 2048.37,854.04 C2041.89,863.03 2033.22,874.30 2022.04,886.55 C1996.88,914.16 1959.93,946.57 1910.48,964.32 C1895.94,969.43 1880.12,961.98 1874.96,947.49 C1869.80,932.99 1877.41,917.12 1891.75,912.02 C1928.24,899.00 1958.76,873.44 1979.89,850.32 C1989.69,839.75 1997.29,829.75 2002.81,822.10 C1975.40,798.93 1953.76,772.55 1938.91,745.40 C1924.83,719.37 1916.66,692.53 1916.56,666.45 C1916.56,651.14 1929.02,638.68 1944.38,638.68 C1959.69,638.68 1972.14,651.14 1972.14,666.45 C1972.03,680.48 1976.93,699.21 1987.75,718.86 C1998.41,738.55 2014.64,759.07 2035.87,777.45 C2078.33,814.24 2139.62,842.41 2216.02,842.41 C2231.38,842.41 2243.78,854.92 2243.78,870.27 C2243.78,885.58 2231.37,898.03 2216.02,898.03 Z" fill="none" stroke="rgb(0, 0, 0)" stroke-width="44.00" stroke-opacity="1.00" stroke-linejoin="miter"/>
<path d="M2435.05,1289.30 C2425.30,1301.04 2407.74,1302.77 2395.90,1292.92 C2384.07,1283.18 2382.43,1265.62 2392.13,1253.83 C2422.44,1217.04 2433.62,1179.99 2433.72,1144.52 C2433.82,1112.22 2423.92,1081.04 2408.40,1054.76 C2393.09,1028.52 2371.92,1007.50 2351.56,995.81 C2337.88,987.96 2325.02,984.43 2314.81,984.43 C2299.45,984.43 2287.05,972.04 2287.05,956.67 C2287.05,941.32 2299.45,928.86 2314.81,928.86 C2331.70,928.86 2348.24,932.99 2363.96,939.93 C2379.62,946.78 2394.43,956.52 2408.20,968.42 C2435.71,992.19 2459.08,1024.55 2473.78,1062.47 C2483.48,1087.78 2489.39,1115.55 2489.39,1144.53 C2489.45,1192.19 2473.17,1243.22 2435.05,1289.30 Z" fill="none" stroke="rgb(0, 0, 0)" stroke-width="44.00" stroke-opacity="1.00" stroke-linejoin="miter"/>
<path d="M1122.78,2681.38 C1122.78,2681.38 1124.67,2683.07 1124.67,2683.07 C1124.67,2683.07 1124.62,2683.01 1124.57,2682.96 C1124.57,2682.96 1122.78,2681.38 1122.78,2681.38 Z" fill="none" stroke="rgb(0, 0, 0)" stroke-width="6.51" stroke-opacity="1.00" stroke-linejoin="miter"/>
<path d="M2791.01,433.42 C2584.26,191.68 2273.33,27.05 1874.91,3.01 C1842.50,1.02 1810.25,0.00 1778.30,0.00 C1443.22,0.00 1134.97,108.80 909.00,308.55 C682.88,507.78 542.08,799.49 542.58,1148.86 C542.58,1156.77 542.64,1164.68 542.79,1172.64 C542.79,1172.64 542.43,1214.79 542.43,1214.79 C542.43,1214.79 254.81,1722.72 254.81,1722.72 C239.35,1750.12 231.54,1780.70 231.54,1811.27 C231.54,1836.78 236.95,1862.40 247.92,1886.28 C271.14,1936.96 316.81,1973.40 370.90,1985.95 C370.90,1985.95 370.80,1986.41 370.80,1986.41 C370.80,1986.41 503.08,2022.85 503.08,2022.85 C503.08,2022.85 555.34,2526.90 555.34,2526.90 C555.34,2526.90 555.75,2526.85 555.75,2526.85 C559.43,2600.29 592.19,2669.23 647.82,2717.61 C697.27,2760.68 760.40,2784.06 825.31,2784.06 C831.89,2784.06 838.37,2783.44 844.91,2782.99 C844.91,2782.99 994.79,2794.88 994.79,2794.88 C994.79,2794.88 1002.30,2794.06 1002.30,2794.06 C1002.30,2794.06 1004.69,2793.96 1004.69,2793.96 C1010.46,2793.96 1015.82,2796.00 1019.95,2799.73 C1019.95,2799.73 1020.20,2799.99 1020.20,2799.99 C1024.95,2804.27 1027.76,2810.55 1027.76,2816.98 C1027.76,2816.98 1027.76,3333.33 1027.76,3333.33 C1027.76,3333.33 2427.24,3333.33 2427.24,3333.33 C2427.24,3333.33 2427.24,3254.95 2427.24,3254.95 C2427.24,3254.95 2427.24,3042.60 2427.24,2957.89 C2427.08,2923.80 2433.87,2856.39 2447.25,2791.37 C2453.88,2758.76 2462.09,2726.25 2471.39,2698.14 C2480.57,2670.07 2491.19,2646.18 2500.07,2632.25 C2593.15,2482.21 2724.77,2359.13 2845.30,2185.05 C2965.69,2011.13 3068.31,1785.51 3096.43,1443.18 C3100.01,1400.27 3101.80,1357.34 3101.80,1314.64 C3101.80,990.10 2998.10,674.96 2791.01,433.42 Z" fill="none" stroke="rgb(0, 0, 0)" stroke-width="73.70" stroke-opacity="1.00" stroke-linejoin="miter"/>
<path d="M2940.18,1430.10 C2912.98,1748.30 2823.97,1938.70 2716.18,2096.14 C2608.56,2253.42 2475.47,2377.08 2367.12,2549.11 C2348.24,2579.53 2334.41,2613.22 2322.52,2649.04 C2304.86,2702.68 2292.26,2761.16 2283.63,2815.61 C2275.06,2870.21 2270.52,2919.72 2270.47,2957.89 C2270.47,3012.29 2270.47,3094.56 2270.47,3176.56 C2270.47,3176.56 1184.53,3176.56 1184.53,3176.56 C1184.53,3176.56 1184.53,2816.99 1184.53,2816.99 C1184.53,2765.90 1162.79,2717.27 1124.71,2683.13 C1091.49,2653.27 1048.63,2637.15 1004.69,2637.15 C1001.47,2637.15 998.36,2637.50 995.20,2637.71 C995.20,2637.71 845.47,2625.77 845.47,2625.77 C845.47,2625.77 838.12,2626.58 838.12,2626.58 C838.12,2626.58 825.31,2627.30 825.31,2627.30 C798.06,2627.30 771.52,2617.45 750.75,2599.38 C726.76,2578.51 712.57,2548.50 711.65,2516.61 C711.65,2516.61 711.61,2513.65 711.61,2513.65 C711.61,2513.65 648.02,1900.23 648.02,1900.23 C648.02,1900.23 409.69,1834.51 409.69,1834.51 C409.69,1834.51 406.84,1833.95 406.84,1833.95 C399.59,1832.51 393.52,1827.71 390.40,1820.98 C390.40,1820.98 388.31,1811.28 388.31,1811.28 C388.31,1811.28 391.27,1799.95 391.27,1799.95 C391.27,1799.95 698.89,1256.71 698.89,1256.71 C698.89,1256.71 699.56,1171.84 699.56,1171.84 C699.56,1171.84 699.56,1170.71 699.56,1170.71 C699.41,1163.37 699.36,1156.11 699.36,1148.87 C699.87,841.25 819.43,597.71 1012.85,425.99 C1206.47,254.67 1476.85,156.78 1778.30,156.78 C1807.03,156.78 1836.02,157.70 1865.21,159.49 C1865.21,159.49 1870.06,81.26 1870.06,81.26 C1870.06,81.26 1865.26,159.49 1865.26,159.49 C2226.22,182.20 2491.90,326.22 2671.99,535.50 C2851.78,744.94 2945.03,1023.12 2945.03,1314.63 C2945.03,1352.94 2943.44,1391.47 2940.18,1430.10 Z" fill="none" stroke="rgb(0, 0, 0)" stroke-width="73.70" stroke-opacity="1.00" stroke-linejoin="miter"/>
</g>
</svg>
