<?xml version="1.0" encoding="UTF-8" standalone="no"?>
<!DOCTYPE svg PUBLIC "-//W3C//DTD SVG 1.1//EN" "http://www.w3.org/Graphics/SVG/1.1/DTD/svg11.dtd">
<svg width="1228.80" height="1228.80" viewBox="0.00 0.00 5120.00 5120.00" xmlns="http://www.w3.org/2000/svg" xmlns:xlink="http://www.w3.org/1999/xlink">
<g stroke-linecap="round" id="human-soul-1-svgrepo-com">
<path d="M3226.98,2448.09 C3182.89,2402.39 3137.34,2359.92 3097.20,2322.43 C3047.61,2276.24 2975.41,2208.91 2953.10,2172.27 C2960.08,2161.29 2970.27,2146.68 2978.45,2135.02 C3050.82,2031.37 3185.56,1838.49 3075.44,1552.01 C3045.13,1473.39 2995.17,1403.26 2951.08,1341.41 C2925.64,1305.68 2903.31,1289.28 2873.74,1218.70 C2818.73,1087.68 2926.83,944.44 2919.02,913.07 C2911.21,881.71 2646.69,951.74 2646.69,951.74 C2511.59,997.85 2402.46,1099.11 2347.36,1229.62 C2297.39,1347.93 2296.66,1474.72 2345.34,1577.45 C2383.17,1657.36 2381.52,1709.66 2340.38,1732.99 C1765.04,2059.01 1792.60,2438.71 1879.30,2660.94 C1810.60,2701.86 1749.16,2753.65 1697.72,2815.10 C1592.09,2941.39 1479.40,3165.73 1542.59,3517.10 C1616.44,3928.21 2028.56,4238.29 2501.21,4238.33 C2501.21,4238.33 2501.39,4238.33 2501.39,4238.33 C2756.72,4238.33 2992.77,4142.81 3165.82,3969.36 C3601.27,3532.94 3628.18,2864.71 3226.98,2448.09 Z" fill="none" stroke="rgb(0, 0, 0)" stroke-width="73.70" stroke-opacity="1.00" stroke-linejoin="miter"/>
<path d="M3059.63,3701.50 C2634.20,4127.81 1847.98,3867.75 1754.66,3348.80 C1661.44,2829.77 2019.18,2566.86 2390.34,2610.07 C2777.56,2655.17 2781.05,3024.12 2652.75,3146.56 C2524.44,3268.99 2326.87,3203.78 2297.02,3076.57 C2267.81,3105.77 2226.39,3187.85 2307.21,3278.27 C2507.08,3501.64 2953.18,3344.86 2929.85,2954.13 C2906.52,2563.42 2530.58,2337.75 2095.59,2490.58 C1914.84,2099.95 2285.07,1860.83 2460.04,1761.68 C2635.01,1662.62 2594.88,1472.77 2542.34,1361.96 C2489.89,1251.24 2554.09,1056.29 2734.39,994.80 C2636.39,1150.35 2862.70,1317.97 2926.82,1484.58 C3024.35,1738.17 2848.01,1867.49 2800.98,1973.30 C2731.82,2128.94 2940.23,2258.44 3118.40,2443.56 C3424.09,2760.98 3446.13,3314.18 3059.63,3701.50 Z" fill="none" stroke="rgb(0, 0, 0)" stroke-width="73.70" stroke-opacity="1.00" stroke-linejoin="miter"/>
</g>
</svg>
