<?xml version="1.0" encoding="UTF-8"?>
<!-- Uploaded to: SVG Find, www.svgrepo.com, Generator: SVG Find Mixer Tools -->
<svg fill="#000000" width="800px" height="800px" version="1.1" viewBox="144 144 512 512" xmlns="http://www.w3.org/2000/svg">
 <g>
  <path d="m253.89 460.46c-0.019531 7.0938 1.832 14.066 5.3711 20.215 3.5391 6.1445 8.6367 11.25 14.781 14.797l105.8 60.457c12.391 7.0859 27.609 7.0859 40 0l105.8-60.457c6.1992-3.5078 11.359-8.5938 14.953-14.746 3.5898-6.1523 5.4922-13.145 5.5-20.266v-120.91c0.019532-7.0938-1.832-14.066-5.3711-20.215-3.5391-6.1484-8.6367-11.254-14.781-14.801l-105.8-60.457h0.003906c-12.395-7.0859-27.609-7.0859-40.004 0l-105.8 60.457c-6.1992 3.5078-11.359 8.5977-14.949 14.746-3.5938 6.1523-5.4922 13.145-5.5039 20.27zm40.305-120.91 105.8-60.457 105.8 60.457v120.91l-105.8 60.457-105.8-60.457z"/>
  <path d="m445.34 443.63 28.516-28.516-59.598-59.602c-3.7812-3.7852-8.9102-5.9102-14.258-5.9102-5.3516 0-10.48 2.125-14.258 5.9102l-59.602 59.602 28.516 28.516 45.344-45.344z"/>
 </g>
</svg>